HIERARCHY
ROOT Hips
{
	OFFSET 0.000000 0.000000 0.000000
	CHANNELS 6 Xposition Yposition Zposition Zrotation Yrotation Xrotation 
	JOINT LHipJoint
	{
		OFFSET 0.000000 0.000000 0.000000
		CHANNELS 3 Zrotation Yrotation Xrotation
		JOINT LeftUpLeg
		{
			OFFSET 1.363060 -1.794630 0.839290
			CHANNELS 3 Zrotation Yrotation Xrotation
			JOINT LeftLeg
			{
				OFFSET 2.448110 -6.726130 0.000000
				CHANNELS 3 Zrotation Yrotation Xrotation
				JOINT LeftFoot
				{
					OFFSET 2.562200 -7.039590 0.000000
					CHANNELS 3 Zrotation Yrotation Xrotation
					JOINT LeftToeBase
					{
						OFFSET 0.157640 -0.433110 2.322550
						CHANNELS 3 Zrotation Yrotation Xrotation
						End Site
						{
							OFFSET 0.000000 0.000000 0.000000
						}
					}
				}
			}
		}
	}
	JOINT RHipJoint
	{
		OFFSET 0.000000 0.000000 0.000000
		CHANNELS 3 Zrotation Yrotation Xrotation
		JOINT RightUpLeg
		{
			OFFSET -1.305520 -1.794630 0.839290
			CHANNELS 3 Zrotation Yrotation Xrotation
			JOINT RightLeg
			{
				OFFSET -2.542530 -6.985550 0.000000
				CHANNELS 3 Zrotation Yrotation Xrotation
				JOINT RightFoot
				{
					OFFSET -2.568260 -7.056230 0.000000
					CHANNELS 3 Zrotation Yrotation Xrotation
					JOINT RightToeBase
					{
						OFFSET -0.164730 -0.452590 2.363150
						CHANNELS 3 Zrotation Yrotation Xrotation
						End Site
						{
							OFFSET 0.000000 0.000000 0.000000
						}
					}
				}
			}
		}
	}
	JOINT LowerBack
	{
		OFFSET 0.000000 0.000000 0.000000
		CHANNELS 3 Zrotation Yrotation Xrotation
		JOINT Spine
		{
			OFFSET 0.028270 2.035590 -0.193380
			CHANNELS 3 Zrotation Yrotation Xrotation
			JOINT Spine1
			{
				OFFSET 0.056720 2.048850 -0.042750
				CHANNELS 3 Zrotation Yrotation Xrotation
				JOINT Neck
				{
					OFFSET 0.000000 0.000000 0.000000
					CHANNELS 3 Zrotation Yrotation Xrotation
					JOINT Neck1
					{
						OFFSET -0.054170 1.746240 0.172020
						CHANNELS 3 Zrotation Yrotation Xrotation
						JOINT Head
						{
							OFFSET 0.104070 1.761360 -0.123970
							CHANNELS 3 Zrotation Yrotation Xrotation
							End Site
							{
								OFFSET 0.000000 0.000000 0.000000
							}
						}
					}
				}
				JOINT LeftShoulder
				{
					OFFSET 0.000000 0.000000 0.000000
					CHANNELS 3 Zrotation Yrotation Xrotation
					JOINT LeftArm
					{
						OFFSET 3.362410 1.200890 -0.311210
						CHANNELS 3 Zrotation Yrotation Xrotation
						JOINT LeftForeArm
						{
							OFFSET 4.983000 -0.000000 -0.000000
							CHANNELS 3 Zrotation Yrotation Xrotation
							JOINT LeftHand
							{
								OFFSET 3.483560 -0.000000 -0.000000
								CHANNELS 3 Zrotation Yrotation Xrotation
								JOINT LeftFingerBase
								{
									OFFSET 0.000000 0.000000 0.000000
									CHANNELS 3 Zrotation Yrotation Xrotation
									JOINT LeftHandIndex1
									{
										OFFSET 0.715260 -0.000000 -0.000000
										CHANNELS 3 Zrotation Yrotation Xrotation
										End Site
										{
											OFFSET 0.000000 0.000000 0.000000
										}
									}
								}
								JOINT LThumb
								{
									OFFSET 0.000000 0.000000 0.000000
									CHANNELS 3 Zrotation Yrotation Xrotation
									End Site
									{
										OFFSET 0.000000 0.000000 0.000000
									}
								}
							}
						}
					}
				}
				JOINT RightShoulder
				{
					OFFSET 0.000000 0.000000 0.000000
					CHANNELS 3 Zrotation Yrotation Xrotation
					JOINT RightArm
					{
						OFFSET -3.136600 1.374050 -0.404650
						CHANNELS 3 Zrotation Yrotation Xrotation
						JOINT RightForeArm
						{
							OFFSET -5.241900 -0.000000 -0.000000
							CHANNELS 3 Zrotation Yrotation Xrotation
							JOINT RightHand
							{
								OFFSET -3.444170 -0.000000 -0.000000
								CHANNELS 3 Zrotation Yrotation Xrotation
								JOINT RightFingerBase
								{
									OFFSET 0.000000 0.000000 0.000000
									CHANNELS 3 Zrotation Yrotation Xrotation
									JOINT RightHandIndex1
									{
										OFFSET -0.622530 -0.000000 -0.000000
										CHANNELS 3 Zrotation Yrotation Xrotation
										End Site
										{
											OFFSET 0.000000 0.000000 0.000000
										}
									}
								}
								JOINT RThumb
								{
									OFFSET 0.000000 0.000000 0.000000
									CHANNELS 3 Zrotation Yrotation Xrotation
									End Site
									{
										OFFSET 0.000000 0.000000 0.000000
									}
								}
							}
						}
					}
				}
			}
		}
	}
}
MOTION
Frames: 10
Frame Time: 0.008333
2.250432 19.861806 -4.969736 178.396600 0.560887 173.870196 -12.090957 -4.531861 0.781235 -1.830956 7.059806 -27.760955 0.175826 10.617552 27.407258 4.360901 3.766738 39.330116 0.000000 -0.031900 -0.087800 12.296003 2.427666 -0.048593 -2.178306 8.784781 -18.389418 -1.371683 -9.241719 20.038224 -0.285165 -25.253659 48.038719 -0.000400 -0.121600 0.334200 3.565479 -0.302173 18.359825 0.793807 0.041994 -3.725152 2.692909 -0.363568 -3.443474 -2.686564 -0.300768 -10.442072 2.491663 0.256166 10.030173 -0.630900 0.195400 9.320500 1.560223 -0.473129 0.004025 -28.269703 28.263922 -7.883462 71.090283 -63.260517 -75.303599 -2.328006 -5.923652 -5.773532 28.719420 -6.910550 -0.347900 -7.125000 0.000000 0.000000 4.224500 29.310800 -1.619600 -0.920820 0.090357 -0.897464 38.534967 -28.298368 11.868447 -25.674692 39.032205 -19.622597 2.416263 2.736900 -7.290156 -20.825651 1.554394 0.423600 7.125000 0.000000 0.000000 2.355200 -31.032400 0.804500 
2.194514 19.520259 -5.437949 178.377440 1.252935 173.715349 -12.012166 -4.363202 0.881212 -2.055150 6.767350 -27.445609 0.359134 10.947008 28.423478 4.180478 3.179218 36.275526 0.024500 1.010800 2.778500 12.145483 2.225693 0.069916 -1.763704 8.865171 -17.939896 -1.978828 -9.866950 21.598010 1.108098 -26.951471 45.637159 -0.952100 -6.213700 17.405800 3.593168 -0.053043 17.932816 0.770935 0.384644 -3.729130 2.641972 -0.137676 -3.913095 -2.710910 -0.307141 -10.103205 2.508078 0.219227 9.903250 -0.604800 0.164600 9.199300 1.965611 -0.825730 -0.795692 -31.624306 31.765578 -11.980159 79.585652 -67.772093 -80.143072 -1.885910 -5.162711 -5.873556 30.589658 -5.567991 0.051500 -7.125000 0.000000 0.000000 5.280000 30.052300 -1.933400 -1.350422 0.520091 -0.894733 42.638263 -29.424477 10.606058 -26.987417 40.088471 -20.387332 2.338333 2.611816 -7.653477 -20.816049 1.780575 0.265900 7.125000 0.000000 0.000000 2.417200 -30.641200 0.848400 
2.136180 19.208153 -5.879796 178.377183 1.952072 173.512359 -11.887258 -4.187692 0.918185 -2.329548 6.343518 -27.176709 0.760051 11.477447 29.953829 3.802855 2.962220 32.739838 0.051300 1.461100 4.018500 11.902075 2.032011 0.153141 -1.233121 8.897276 -17.569966 -2.861485 -10.674523 23.651784 3.281402 -29.718871 42.012408 -3.709200 -11.763100 34.898800 3.514350 -0.433525 17.718542 0.736886 0.941737 -3.733414 2.551875 0.639068 -4.448098 -2.738377 -0.337587 -9.728192 2.548290 0.140923 9.726821 -0.592600 0.116800 9.020700 2.380602 -1.175657 -1.441784 -35.518831 34.773899 -16.163448 90.801653 -71.337703 -84.661601 -1.321639 -4.123803 -6.056633 32.794265 -3.846050 0.539600 -7.125000 0.000000 0.000000 6.485600 30.889800 -2.248800 -1.757160 0.962885 -0.940789 47.088390 -30.321416 8.905290 -28.149537 40.917422 -20.950580 2.280889 2.470826 -7.894519 -20.864992 1.963237 0.123500 7.125000 0.000000 0.000000 2.424800 -30.284900 0.871800 
2.077077 18.884403 -6.299671 178.395690 2.571071 173.293802 -11.675457 -4.076308 0.836460 -2.682414 5.802789 -27.067808 1.430787 12.217646 32.160818 3.198797 3.120582 28.892476 0.043300 1.343400 3.694300 11.527949 1.923779 0.194157 -0.628790 8.972305 -17.396857 -3.943671 -11.599894 26.325019 5.944029 -32.755230 37.345856 -6.628400 -15.010800 47.454300 3.655526 -0.090929 17.762737 0.724515 1.398439 -3.755583 2.456520 0.891488 -4.905227 -2.915665 0.454930 -9.550912 2.660069 -0.165743 9.484526 -0.605900 -0.598500 8.793600 2.774899 -1.384907 -1.383598 -40.474056 36.413132 -18.499152 102.360032 -71.178451 -88.679787 -0.892537 -3.166220 -6.126862 34.845058 -2.169716 1.075400 -7.125000 0.000000 0.000000 7.703600 31.741800 -2.518500 -2.172423 1.265533 -1.152939 51.862262 -30.739035 6.793856 -29.170525 41.484101 -21.284869 2.239376 2.319975 -8.038436 -21.012165 2.054446 0.017800 7.125000 0.000000 0.000000 2.350100 -30.020200 0.859700 
2.019621 18.576582 -6.688347 178.442061 3.086223 173.046808 -11.388555 -4.028570 0.675979 -3.076864 5.161029 -27.096369 2.335051 13.101824 34.977998 2.457702 3.529787 25.190950 0.013900 0.761900 2.093900 11.041461 1.925883 0.219435 0.027215 9.150981 -17.413698 -5.094892 -12.549844 29.585297 8.631943 -35.303412 32.034530 -8.658500 -16.582900 54.901400 3.792531 0.244156 18.091684 0.709811 1.872323 -3.779055 2.348723 1.140313 -5.293739 -2.907165 0.378330 -9.502353 2.645846 -0.230512 9.140104 -0.648500 -0.605400 8.520000 3.114764 -1.606276 -0.952903 -46.187828 36.954957 -19.666035 111.006134 -68.643145 -92.078260 -0.744011 -2.414357 -5.989405 36.575472 -0.666192 1.660800 -7.125000 0.000000 0.000000 8.934700 32.610200 -2.739900 -2.481590 1.504693 -1.423092 56.784128 -30.507113 4.429620 -30.013643 41.775237 -21.384814 2.214913 2.173783 -8.196569 -21.294934 2.024772 -0.035500 7.125000 0.000000 0.000000 2.158500 -29.888500 0.796300 
1.965461 18.290294 -7.047252 178.500316 3.509573 172.806814 -11.023373 -4.047168 0.455445 -3.501634 4.467313 -27.308956 3.426790 14.068001 38.338125 1.758935 3.880018 21.941336 0.000100 -0.049500 -0.135900 10.469842 2.045724 0.206233 0.711646 9.425777 -17.678292 -6.254565 -13.493858 33.393681 10.820054 -36.888061 26.772289 -9.825600 -17.310600 58.903700 3.889609 0.546848 18.628760 0.695874 2.328542 -3.798358 2.288864 1.368155 -5.695251 -2.861001 0.312374 -9.484278 2.589015 -0.289253 8.734323 -0.719400 -0.610000 8.213000 3.408938 -1.899216 -0.555648 -52.260974 36.683350 -20.661844 117.012880 -65.767700 -94.785501 -0.757323 -1.862838 -5.634438 38.068883 0.571671 2.238300 -7.125000 0.000000 0.000000 10.144100 33.406900 -2.922100 -2.730923 1.766275 -1.617550 61.667270 -29.581214 2.078428 -30.673189 41.829345 -21.277771 2.207564 2.042703 -8.503451 -21.721804 1.891765 -0.041600 7.125000 0.000000 0.000000 1.837800 -29.875900 0.678400 
1.916245 18.030810 -7.379132 178.506697 3.828361 172.582572 -10.615722 -4.115703 0.212604 -3.974564 3.780481 -27.676884 4.621480 15.025392 42.009549 1.241188 3.974915 19.350106 0.039200 -1.277600 -3.513000 9.834598 2.253506 0.163312 1.353402 9.748575 -18.183857 -7.267998 -14.361360 37.577984 12.076579 -36.632002 21.832297 -10.181900 -17.510900 60.094500 3.879313 0.822222 19.298157 0.681117 2.752742 -3.806930 2.294304 1.571890 -6.079203 -2.813381 0.248407 -9.472818 2.509581 -0.349359 8.287287 -0.804100 -0.617600 7.877900 3.681778 -2.236595 -0.234410 -58.388764 35.550031 -21.449336 121.053488 -63.161518 -96.760755 -0.840723 -1.473393 -5.132750 39.405966 1.448339 2.700900 -7.125000 0.000000 0.000000 11.301100 33.980900 -3.105900 -2.941805 2.043513 -1.719095 66.350561 -28.006967 0.026544 -31.192754 41.722094 -21.035115 2.214077 1.930960 -9.033290 -22.257171 1.701404 -0.018400 7.125000 0.000000 0.000000 1.415700 -29.934400 0.520500 
1.872852 17.804284 -7.687502 178.401233 4.072106 172.356992 -10.217219 -4.194070 -0.006604 -4.485060 3.168929 -28.130669 5.817287 15.905994 45.723123 1.031236 3.619713 17.789751 0.094500 -1.982800 -5.458000 9.229692 2.459436 0.084244 1.875419 9.892745 -18.861811 -8.338464 -15.208004 41.804097 12.757363 -36.254605 17.954772 -10.363800 -17.609400 60.697400 3.702921 1.097946 20.049496 0.661478 3.157445 -3.796751 2.368817 1.765448 -6.388631 -2.786569 0.172920 -9.494130 2.425741 -0.423913 7.825397 -0.887200 -0.635600 7.536500 3.937444 -2.579674 0.044005 -64.215849 33.533387 -21.747140 123.495472 -61.055903 -97.981716 -0.950069 -1.209664 -4.576659 40.532101 1.940401 2.968700 -7.125000 0.000000 0.000000 12.302000 34.248600 -3.309900 -3.126661 2.319614 -1.748102 70.694561 -25.892967 -1.450261 -31.614569 41.529068 -20.726895 2.231012 1.838463 -9.747461 -22.852301 1.490367 0.020100 7.125000 0.000000 0.000000 0.933300 -30.026000 0.341100 
1.833523 17.614230 -7.979723 178.148644 4.230408 172.106848 -9.857152 -4.259978 -0.180462 -5.054200 2.679334 -28.584990 6.947748 16.670642 49.278487 1.068593 2.882584 16.916030 0.175300 -2.697400 -7.437300 8.676241 2.631978 -0.003787 2.225647 9.803233 -19.599912 -9.451930 -15.994690 45.857627 13.085806 -36.002002 15.161142 -10.497700 -17.680400 61.139100 3.361214 1.380759 20.812066 0.630161 3.537029 -3.763261 2.478806 1.949636 -6.586114 -2.780685 0.075632 -9.544453 2.354624 -0.526236 7.379946 -0.954700 -0.669800 7.208000 4.170839 -2.901240 0.291553 -69.389973 30.789235 -21.316479 124.546446 -59.590954 -98.434485 -1.066813 -1.042557 -4.133321 41.441805 2.102792 3.033500 -7.125000 0.000000 0.000000 13.115200 34.229600 -3.544500 -3.298651 2.580747 -1.731424 74.610112 -23.427799 -2.111000 -31.972063 41.318658 -20.410096 2.248983 1.746298 -10.459741 -23.378511 1.377215 0.013000 7.125000 0.000000 0.000000 0.505300 -30.009300 0.184800 
1.796281 17.463066 -8.262496 177.763403 4.322902 171.818697 -9.548256 -4.292229 -0.287477 -5.686074 2.408242 -28.958377 7.965871 17.298646 52.506100 1.211066 2.012568 16.057981 0.315900 -3.612900 -9.990100 8.183350 2.752654 -0.079982 2.386191 9.522914 -20.263312 -10.552757 -16.687308 49.590430 13.180733 -35.828957 13.337580 -10.589700 -17.728400 61.441900 2.899051 1.665744 21.525655 0.586026 3.886464 -3.706178 2.589989 2.123134 -6.665529 -2.782047 -0.036167 -9.600414 2.307019 -0.649357 6.983711 -0.999900 -0.715600 6.910100 4.374695 -3.187175 0.499600 -73.702167 27.609622 -20.132185 124.326521 -58.825497 -98.114216 -1.176458 -0.952787 -3.976620 41.993329 1.962949 2.862300 -7.125000 0.000000 0.000000 13.602000 33.913200 -3.789800 -3.463309 2.820285 -1.690418 78.036832 -20.806739 -1.733944 -32.304876 41.145617 -20.131093 2.255114 1.645499 -10.952632 -23.712420 1.362441 -0.041700 7.125000 0.000000 0.000000 0.245000 -29.885400 0.090300 
